PathFileType	4	(X/Y/Z)	/Users/itak/Documents/Research/Walk-IL/dataset/trc/00054_00006.trc
DataRate	CameraRate	NumFrames	NumMarkers	Units	OrigDataRate	OrigDataStartFrame	OrigNumFrames
100.000000	100.000000	4	53	mm	100.000000	295	472
Frame#	Time	RPSI			LPSI			L3			STRN			T10			C7			CLAV			RBAK			LBAK			LSHO			LUPA			LAEL			LAOL			LWTS			LWPS			LFRA			LHPS			LHTS			RSHO			RUPA			RAEL			RAOL			RWTS			RWPS			RFRA			RIFD			RHTS			RHPS			RBHD			LFHD			RFHD			LBHD			LHIP			RHIP			RASI			LASI			LKNE			LTHI			LANK			LTIP			LTOE			LMT1			LMT5			LHEE			RKNE			RTHI			RANK			RTIP			RTOE			RMT1			RMT5			RHEE			LIFD			
		X1	Y1	Z1	X2	Y2	Z2	X3	Y3	Z3	X4	Y4	Z4	X5	Y5	Z5	X6	Y6	Z6	X7	Y7	Z7	X8	Y8	Z8	X9	Y9	Z9	X10	Y10	Z10	X11	Y11	Z11	X12	Y12	Z12	X13	Y13	Z13	X14	Y14	Z14	X15	Y15	Z15	X16	Y16	Z16	X17	Y17	Z17	X18	Y18	Z18	X19	Y19	Z19	X20	Y20	Z20	X21	Y21	Z21	X22	Y22	Z22	X23	Y23	Z23	X24	Y24	Z24	X25	Y25	Z25	X26	Y26	Z26	X27	Y27	Z27	X28	Y28	Z28	X29	Y29	Z29	X30	Y30	Z30	X31	Y31	Z31	X32	Y32	Z32	X33	Y33	Z33	X34	Y34	Z34	X35	Y35	Z35	X36	Y36	Z36	X37	Y37	Z37	X38	Y38	Z38	X39	Y39	Z39	X40	Y40	Z40	X41	Y41	Z41	X42	Y42	Z42	X43	Y43	Z43	X44	Y44	Z44	X45	Y45	Z45	X46	Y46	Z46	X47	Y47	Z47	X48	Y48	Z48	X49	Y49	Z49	X50	Y50	Z50	X51	Y51	Z51	X52	Y52	Z52	X53	Y53	Z53	

296	2.95	-389.7520446777344	1020.775634765625	-137.8374328613281	-407.7117309570312	1007.9150390625	-310.177490234375	-387.9200744628906	1080.548217773438	-235.4818267822266	-102.0495529174805	1239.419189453125	-236.1749420166016	-378.4276123046875	1211.537231445312	-247.1320343017578	-285.0565185546875	1468.46923828125	-246.3231048583984	-116.9423751831055	1357.355346679688	-236.4029998779297	-366.6039123535156	1339.058837890625	-176.0837707519531	-305.2359313964844	1434.206665039062	-349.4429626464844	-197.9825897216797	1426.2744140625	-414.1048889160156	-218.1163330078125	1302.526611328125	-494.7074890136719	-200.2327728271484	1085.879150390625	-517.5687866210938	-272.8078308105469	1071.684692382812	-441.5748901367188	-94.27814483642578	867.1658935546875	-416.1629638671875	-141.3562164306641	841.7972412109375	-480.7008056640625	-168.2730255126953	978.3023681640625	-512.0003662109375	-99.70345306396484	766.61767578125	-461.3530883789062	-61.67271423339844	789.428955078125	-405.0966186523438	-234.0173034667969	1423.805541992188	-69.36060333251953	-260.9997863769531	1360.887573242188	-8.488280296325684	-350.5181274414062	1119.867553710938	39.25911331176758	-320.9618835449219	1080.785278320312	-46.92354583740234	-247.5686187744141	847.5543823242188	57.14992523193359	-326.6510009765625	850.4312744140625	93.18286895751953	-354.5980834960938	1039.223754882812	59.28932571411133	-282.8270263671875	657.4049682617188	52.53570938110352	-250.3518981933594	740.0422973632812	66.06285858154297	-315.1429443359375	755.5462036132812	105.9740447998047	-225.7519073486328	1643.180908203125	-300.4468383789062	-74.48527526855469	1655.221435546875	-146.8104248046875	-51.23976135253906	1668.007446289062	-270.2719116210938	-241.6080932617188	1621.875	-165.2426300048828	-317.3153991699219	932.4794311523438	-407.2185668945312	-321.1670532226562	948.1844482421875	-61.45322799682617	-198.9054718017578	957.8560180664062	-94.04107666015625	-203.0635833740234	933.6923828125	-359.7315368652344	-282.9772033691406	461.3576049804688	-327.2454223632812	-301.1338195800781	604.4098510742188	-374.3368530273438	-534.9553833007812	55.49444580078125	-330.1374206542969	-420.1654052734375	244.3250579833984	-341.0732727050781	-336.178955078125	41.79476547241211	-317.8872680664062	-382.6339111328125	42.89956665039062	-266.647216796875	-432.9380493164062	35.99278259277344	-368.8652038574219	-590.9256591796875	67.35404205322266	-255.5888977050781	-113.2856750488281	530.7298583984375	-77.47410583496094	-197.1143493652344	789.2247314453125	-52.07526397705078	-75.47257995605469	38.53668975830078	-74.82846832275391	-101.989501953125	406.0243225097656	-66.94505310058594	133.9624328613281	57.01910400390625	-127.9507751464844	70.50511932373047	62.74271774291992	-160.8866424560547	51.758544921875	47.84352874755859	-67.60916900634766	-127.925407409668	44.15313339233398	-127.4813842773438	-66.75437927246094	689.4636840820312	-368.2061462402344	
297	2.96	-399.9311828613281	1020.737182617188	-139.9946441650391	-416.8934936523438	1007.981323242188	-312.4547424316406	-397.508056640625	1080.963989257812	-237.5597076416016	-111.0951766967773	1239.324584960938	-237.5105895996094	-387.5255737304688	1211.953002929688	-248.9728698730469	-293.6415710449219	1468.68408203125	-247.7735443115234	-125.7684631347656	1357.28564453125	-237.7311401367188	-375.5444946289062	1339.3623046875	-177.7655487060547	-313.678955078125	1434.466064453125	-350.9325256347656	-206.4252471923828	1426.447998046875	-415.5094909667969	-226.6213226318359	1302.86279296875	-496.4339904785156	-208.7768249511719	1086.159423828125	-519.556640625	-281.6075134277344	1071.9462890625	-443.7546081542969	-103.1223068237305	867.3675537109375	-418.0296630859375	-150.0788726806641	842.0258178710938	-482.717041015625	-176.9376525878906	978.5545654296875	-513.9924926757812	-108.5556411743164	766.7847290039062	-463.2848510742188	-70.58811187744141	789.6392822265625	-406.9355773925781	-242.9837799072266	1423.715454101562	-70.78614044189453	-270.1035461425781	1360.6494140625	-10.04019260406494	-359.4598083496094	1119.2431640625	36.96102523803711	-329.5682373046875	1080.455200195312	-49.211181640625	-255.03662109375	847.467529296875	54.22349166870117	-334.1878051757812	849.6533203125	90.04038238525391	-363.2015075683594	1038.4453125	56.74461364746094	-288.8811645507812	657.0916137695312	48.7749137878418	-257.0303649902344	739.947021484375	62.72681427001953	-322.0919494628906	754.8009643554688	102.4775619506836	-233.7426300048828	1643.362548828125	-301.7490539550781	-82.53411102294922	1654.913330078125	-148.0072937011719	-59.18937301635742	1667.63623046875	-271.4244079589844	-249.7837219238281	1622.078491210938	-166.5573883056641	-325.5386657714844	932.4698486328125	-408.6849060058594	-331.9448547363281	948.1570434570312	-63.1457405090332	-209.4635009765625	957.8363037109375	-94.86704254150391	-212.0346832275391	933.7743530273438	-360.5565490722656	-287.7791137695312	461.7374572753906	-327.765380859375	-307.1184692382812	604.4302978515625	-375.276611328125	-535.467529296875	53.97724151611328	-329.75048828125	-422.5226135253906	243.1934356689453	-340.9393615722656	-336.2112731933594	41.77091217041016	-317.8357238769531	-382.8066101074219	42.78987884521484	-266.4751892089844	-433.17578125	35.82066345214844	-368.6274719238281	-591.468017578125	64.64077758789062	-255.0652618408203	-121.8607330322266	531.5391845703125	-76.36019897460938	-207.7419281005859	789.5970458984375	-51.93825531005859	-80.59664154052734	38.77250671386719	-72.59767150878906	-109.8193969726562	407.21875	-65.74068450927734	128.2939758300781	60.95439529418945	-127.1121978759766	64.27182769775391	66.00870513916016	-159.5058441162109	46.46834182739258	49.08143615722656	-66.268798828125	-133.5296630859375	44.50816345214844	-124.9699249267578	-75.96849822998047	689.578125	-370.074462890625	
298	2.97	-409.9209594726562	1020.743774414062	-142.1293029785156	-425.8935852050781	1008.064697265625	-314.7211303710938	-406.9029235839844	1081.388061523438	-239.6106567382812	-120.0398788452148	1239.369018554688	-238.6799774169922	-396.5308837890625	1212.426513671875	-250.7267303466797	-302.2019653320312	1468.989624023438	-249.1206817626953	-134.5381622314453	1357.341674804688	-238.9098815917969	-384.4297485351562	1339.720703125	-179.3536682128906	-322.0671691894531	1434.800537109375	-352.3158569335938	-214.7973785400391	1426.7021484375	-416.7935180664062	-235.0718536376953	1303.280639648438	-498.0334167480469	-217.3377990722656	1086.54296875	-521.499267578125	-290.3851623535156	1072.299438476562	-445.8609008789062	-111.9775924682617	867.6429443359375	-419.9308776855469	-158.869140625	842.3300170898438	-484.7377319335938	-185.6453704833984	978.8978881835938	-515.9689331054688	-117.4472732543945	767.0303955078125	-465.2530517578125	-79.47571563720703	789.94775390625	-408.8383483886719	-251.9516448974609	1423.717163085938	-72.08899688720703	-279.2062683105469	1360.49462890625	-11.47017192840576	-368.2908630371094	1118.677978515625	34.8248405456543	-338.0685729980469	1080.1796875	-51.3557014465332	-262.2855834960938	847.49169921875	51.44202041625977	-341.5262451171875	848.9362182617188	87.01943206787109	-371.6796875	1037.725463867188	54.34834289550781	-294.5971069335938	656.8851928710938	45.13496398925781	-263.4316711425781	739.96875	59.53592300415039	-328.7596130371094	754.1262817382812	99.10277557373047	-241.7421875	1643.652099609375	-302.9541320800781	-90.567138671875	1654.74755859375	-149.1429901123047	-67.14603424072266	1667.384155273438	-272.5141906738281	-257.9338073730469	1622.407836914062	-167.7684631347656	-333.5565185546875	932.5350952148438	-410.1086730957031	-342.5558166503906	948.202880859375	-64.80720520019531	-219.8328247070312	957.9592895507812	-95.57569122314453	-220.7576141357422	933.9423217773438	-361.2643432617188	-292.2748107910156	462.2247009277344	-328.239501953125	-312.7725830078125	604.5632934570312	-376.1536254882812	-535.884521484375	52.68178939819336	-329.3931274414062	-424.684326171875	242.2481689453125	-340.8173522949219	-336.2310180664062	41.75563049316406	-317.7829284667969	-382.9329528808594	42.68478775024414	-266.2991333007812	-433.3652038574219	35.70226287841797	-368.3851013183594	-591.881103515625	62.2506217956543	-254.5806427001953	-130.0890808105469	532.508056640625	-75.34587097167969	-218.1398620605469	790.070068359375	-51.68023681640625	-87.52581024169922	39.13844680786133	-70.39653015136719	-117.6796112060547	408.4483337402344	-64.63156127929688	120.9132080078125	64.71038818359375	-125.9370651245117	56.42740249633789	68.95612335205078	-157.9426116943359	39.3148193359375	50.44864273071289	-64.72124481201172	-140.8189697265625	44.84810638427734	-122.5883407592773	-85.13297271728516	689.7810668945312	-372.0008850097656	
299	2.98	-419.6860656738281	1020.818054199219	-144.1958618164062	-434.7218627929688	1008.193603515625	-316.9249877929688	-416.1026000976562	1081.853881835938	-241.5989685058594	-128.8801422119141	1239.566528320312	-239.6875152587891	-405.4404602050781	1212.97802734375	-252.3790740966797	-310.7274475097656	1469.403686523438	-250.3652496337891	-143.2421569824219	1357.5400390625	-239.9412078857422	-393.2545776367188	1340.158569335938	-180.8437805175781	-330.3934020996094	1435.23193359375	-353.5941162109375	-223.0882263183594	1427.057250976562	-417.9567260742188	-243.454345703125	1303.796752929688	-499.4980163574219	-225.9141845703125	1087.047119140625	-523.3740844726562	-299.1278076171875	1072.765014648438	-447.8632202148438	-120.8425903320312	867.9984130859375	-421.8653564453125	-167.7299194335938	842.7251586914062	-486.7554626464844	-194.3906097412109	979.3499755859375	-517.9140625	-126.386604309082	767.3673706054688	-467.2582092285156	-88.34127807617188	790.350341796875	-410.8090209960938	-260.9032592773438	1423.833862304688	-73.26998901367188	-288.2878112792969	1360.445678710938	-12.77768898010254	-376.9931640625	1118.194580078125	32.8451042175293	-346.4519958496094	1079.982666015625	-53.36727905273438	-269.324951171875	847.6396484375	48.80287933349609	-348.6737976074219	848.3126220703125	84.13150024414062	-380.0169067382812	1037.09033203125	52.09896087646484	-300.0311889648438	656.8059692382812	41.63671875	-269.5903625488281	740.1199951171875	56.49686813354492	-335.1701965332031	753.5553588867188	95.86919403076172	-249.7424011230469	1644.059326171875	-304.0630187988281	-98.58303070068359	1654.743408203125	-150.2123870849609	-75.10218048095703	1667.271850585938	-273.5386047363281	-266.0526733398438	1622.8740234375	-168.8774871826172	-341.4418640136719	932.7091064453125	-411.4719848632812	-352.9456481933594	948.3531494140625	-66.40349578857422	-229.9727172851562	958.253173828125	-96.17639923095703	-229.2462921142578	934.2196655273438	-361.8638305664062	-296.4921569824219	462.8333740234375	-328.6909484863281	-318.1430969238281	604.8289794921875	-376.9770202636719	-536.2216186523438	51.59607696533203	-329.0698852539062	-426.6775512695312	241.5034637451172	-340.7234191894531	-336.2403564453125	41.74787521362305	-317.7342529296875	-383.0166931152344	42.58831787109375	-266.1342468261719	-433.5166320800781	35.62897872924805	-368.1513671875	-592.18701171875	60.18843841552734	-254.1389770507812	-137.9646911621094	533.6566772460938	-74.49269866943359	-228.2497100830078	790.6696166992188	-51.33433532714844	-96.47150421142578	39.66136932373047	-68.30923461914062	-125.6378326416016	409.7091369628906	-63.66252517700195	111.6623611450195	68.08555603027344	-124.3450469970703	46.85713577270508	71.43207550048828	-156.1707916259766	30.09701156616211	51.91117858886719	-62.94410705566406	-149.9541168212891	45.20066452026367	-120.4566802978516	-94.24946594238281	690.0733032226562	-373.9985961914062	
